<svg viewBox="0 0 80 80" xmlns="http://www.w3.org/2000/svg"><g fill="#fff"><path d="m45.65 58.8h-32.51a13.16 13.16 0 0 1 -13.14-13.14v-32.51a13.16 13.16 0 0 1 13.14-13.15h32.51a13.16 13.16 0 0 1 13.14 13.15v21.42a2 2 0 0 1 -2 2 6.51 6.51 0 0 0 -4.2 11.47 6.58 6.58 0 0 0 2.93 1.42 2 2 0 0 1 1.48 1.23 2.06 2.06 0 0 1 -.13 1.9 13.12 13.12 0 0 1 -4.63 4.41 2 2 0 0 1 -2.07 0 12.41 12.41 0 0 0 -1.69 1.21 2 2 0 0 1 -1 .46 11.92 11.92 0 0 1 -1.83.13zm-32.51-54.7a9.05 9.05 0 0 0 -9 9.05v32.51a9 9 0 0 0 9 9h32.51.68a16.48 16.48 0 0 1 3.29-2 2 2 0 0 1 1.75 0l.29-.24a11.23 11.23 0 0 1 -1.78-1.22 10.62 10.62 0 0 1 4.82-18.49v-19.56a9.06 9.06 0 0 0 -9.05-9z"/><path d="m19.12 26.29a8.06 8.06 0 1 1 8.06-8.06 8.07 8.07 0 0 1 -8.06 8.06zm0-12a4 4 0 1 0 4 4 4 4 0 0 0 -4-4.01z"/><path d="m19.12 48.63a8.06 8.06 0 1 1 8.06-8.06 8.07 8.07 0 0 1 -8.06 8.06zm0-12a4 4 0 1 0 4 4 4 4 0 0 0 -4-4.01z"/><path d="m19.12 36.62a2.05 2.05 0 0 1 -2.05-2v-10.38a2.05 2.05 0 0 1 4.1 0v10.33a2.05 2.05 0 0 1 -2.05 2.05z"/><path d="m45.67 20.28h-11a2 2 0 0 1 0-4.1h11a2.05 2.05 0 0 1 0 4.1z"/><path d="m45.67 42.62h-11a2 2 0 0 1 0-4.1h11a2.05 2.05 0 0 1 0 4.1z"/></g><path d="m72.24 75.63h-31a2.05 2.05 0 0 1 -2-1.9c-.6-7.91 1.76-14.53 6.59-18.65a17.08 17.08 0 0 1 3.79-2.43 2 2 0 0 1 2.32.41l4.78 4.78 4.82-4.84a2.06 2.06 0 0 1 2.32-.41c7.24 3.41 11.14 11.28 10.42 21.14a2 2 0 0 1 -2.04 1.9zm-29-4.1h27.03c0-6.68-2.41-11.85-6.9-14.54l-5.2 5.2a2.11 2.11 0 0 1 -2.9 0l-5.16-5.19a13.22 13.22 0 0 0 -1.63 1.18c-3.48 2.95-5.28 7.64-5.26 13.35z" fill="#f1b255"/><path d="m56.75 53.73a11.05 11.05 0 0 1 -2.09-.21 10.78 10.78 0 0 1 -4.78-2.32 10.6 10.6 0 1 1 6.87 2.53zm0-17.12a6.51 6.51 0 0 0 -4.21 11.47 6.58 6.58 0 0 0 2.93 1.42 6 6 0 0 0 1.28.13 6.51 6.51 0 0 0 0-13z" fill="#f1b255"/></svg>