<svg id="Layer_1" data-name="Layer 1" xmlns="http://www.w3.org/2000/svg" viewBox="0 0 80 80"><defs><style>.cls-1{fill:#fff;}.cls-2{fill:#f1b255;}</style></defs><title>mails icons_V4</title><path class="cls-1" d="M39.35,39.66a19.61,19.61,0,0,0-1.23,3.1,5.51,5.51,0,0,1,1.1-.14,43,43,0,0,1,1.71-5.57A18.48,18.48,0,0,0,39.35,39.66Z"/><path class="cls-1" d="M58.8,13.51V25.19l-.95-.4a5,5,0,0,0-2.66,0L54.7,25V13.51A9.42,9.42,0,0,0,45.28,4.1H13.51A9.42,9.42,0,0,0,4.1,13.51V45.3a9.42,9.42,0,0,0,9.41,9.4H40a4.07,4.07,0,0,0,2,1.45,2.51,2.51,0,0,0,0,.27,2,2,0,0,1-2,2.38H13.51A13.52,13.52,0,0,1,0,45.3V13.51A13.52,13.52,0,0,1,13.51,0H45.28A13.53,13.53,0,0,1,58.8,13.51Z"/><path class="cls-1" d="M19.12,26.28a8.06,8.06,0,1,1,8.06-8A8.06,8.06,0,0,1,19.12,26.28Zm0-12a4,4,0,1,0,4,4A4,4,0,0,0,19.12,14.27Z"/><path class="cls-1" d="M19.12,48.62a8.06,8.06,0,1,1,8.06-8A8.06,8.06,0,0,1,19.12,48.62Zm0-12a4,4,0,1,0,4,4A4,4,0,0,0,19.12,36.61Z"/><path class="cls-1" d="M19.12,36.61a2.05,2.05,0,0,1-2.05-2V24.23a2.05,2.05,0,0,1,4.1,0V34.56A2.05,2.05,0,0,1,19.12,36.61Z"/><path class="cls-1" d="M45.68,20.27h-11a2,2,0,0,1,0-4.09h11a2,2,0,1,1,0,4.09Z"/><path class="cls-1" d="M40.4,38.52H34.7a2.05,2.05,0,0,0,0,4.1h4.52A37.47,37.47,0,0,1,40.4,38.52Z"/><path class="cls-2" d="M56.75,78.27a2,2,0,0,1-.8-.16c-.59-.26-14.51-6.58-17.89-26.46a55.05,55.05,0,0,1-.71-8.88,19,19,0,0,1,2-8.56A19.41,19.41,0,0,1,72.91,32h0a19.32,19.32,0,0,1,3.26,10.74c0,1.15,0,2.3-.12,3.51a50.05,50.05,0,0,1-.9,6.92,41.39,41.39,0,0,1-2.69,8.54,37.58,37.58,0,0,1-4,6.9A30,30,0,0,1,57.8,78,2.17,2.17,0,0,1,56.75,78.27Zm0-50.79A15.26,15.26,0,0,0,43,36a14.91,14.91,0,0,0-1.58,6.74,50,50,0,0,0,.67,8.2C44.66,66,53.9,72.29,56.76,73.91a27.55,27.55,0,0,0,8.43-7.7,32.74,32.74,0,0,0,3.52-6.13,36.87,36.87,0,0,0,2.42-7.7A43.79,43.79,0,0,0,72,46c.07-1.12.11-2.19.11-3.25A15.31,15.31,0,0,0,56.78,27.48Zm0,25.4a9.11,9.11,0,1,1,9.11-9.11A9,9,0,0,1,56.75,52.88Zm0-14.12a5,5,0,0,0-5,5,5,5,0,0,0,5,5,5,5,0,0,0,0-10Z"/><path class="cls-2" d="M56.75,52.88a9.11,9.11,0,1,1,9.11-9.11A9,9,0,0,1,56.75,52.88Zm0-14.12a5,5,0,0,0-5,5,5,5,0,0,0,5,5,5,5,0,0,0,0-10Z"/></svg>