<svg id="Layer_1" data-name="Layer 1" xmlns="http://www.w3.org/2000/svg" viewBox="0 0 80 80"><defs><style>.cls-1{fill:#fff;}.cls-2{fill:red;}.cls-3{fill:none;}</style></defs><title>icons</title><path class="cls-1" d="M45.72.39H14A13.47,13.47,0,0,0,.56,13.85v31.7A13.48,13.48,0,0,0,14,59h22.5c-.06-.61-.08-1.22-.08-1.82,0-.76,0-1.49.11-2.23H14a9.42,9.42,0,0,1-9.41-9.42V13.85A9.43,9.43,0,0,1,14,4.43h31.7a9.42,9.42,0,0,1,9.41,9.42v22A21.67,21.67,0,0,1,58,35.69c.4,0,.82,0,1.22,0V13.85A13.47,13.47,0,0,0,45.72.39Z"/><path class="cls-1" d="M21.65,33.1V26.29a8,8,0,1,0-4,0V33.1a8,8,0,1,0,4,0Zm-6-14.55a4,4,0,1,1,4,4A4,4,0,0,1,15.66,18.55Zm4,26.26a4,4,0,1,1,4-4A4,4,0,0,1,19.62,44.81Z"/><path class="cls-1" d="M46.11,20.58h-11a2,2,0,0,1,0-4h11a2,2,0,0,1,0,4Z"/><path class="cls-1" d="M46.65,38.9a22,22,0,0,0-4.75,4H35.17a2,2,0,0,1,0-4H46.11A1.61,1.61,0,0,1,46.65,38.9Z"/><path class="cls-2" d="M59.17,35.73c-.4,0-.82,0-1.22,0a21.67,21.67,0,0,0-2.82.18,21.4,21.4,0,0,0-8.48,3,22,22,0,0,0-4.75,4A21.58,21.58,0,0,0,36.55,55c-.07.74-.11,1.47-.11,2.23,0,.6,0,1.21.08,1.82A21.5,21.5,0,1,0,59.17,35.73ZM58,74.64A17.48,17.48,0,0,1,40.58,59a15.62,15.62,0,0,1-.09-1.82A18.16,18.16,0,0,1,40.63,55a17.48,17.48,0,0,1,14.5-15A18.61,18.61,0,0,1,58,39.73a12.16,12.16,0,0,1,1.22.06A17.45,17.45,0,0,1,58,74.64Z"/><line class="cls-2" x1="56.52" y1="58.63" x2="50.84" y2="64.31"/><line class="cls-3" x1="65.06" y1="50.08" x2="59.38" y2="55.76"/><line class="cls-2" x1="65.06" y1="64.31" x2="59.38" y2="58.63"/><line class="cls-3" x1="52.66" y1="51.91" x2="50.84" y2="50.08"/><path class="cls-2" d="M66.49,62.86a2,2,0,0,1-2.88,2.88L58,60.06l-5.68,5.68a2.07,2.07,0,0,1-1.43.59,2,2,0,0,1-1.43-.59,2,2,0,0,1,0-2.88l5.66-5.66-1-1.07-4.61-4.62a2,2,0,0,1,2.86-2.86l4.53,4.54L58,54.32l5.66-5.67a2,2,0,0,1,2.88,2.86L60.81,57.2Z"/></svg>