<svg id="Layer_1" data-name="Layer 1" xmlns="http://www.w3.org/2000/svg" viewBox="0 0 45 45"><title>icons</title><path d="M19,12.52a6.72,6.72,0,0,1,4.81,2,1.24,1.24,0,0,0,1.75-1.75,9.27,9.27,0,0,0-15.15,3.09H8.86a1.24,1.24,0,1,0,0,2.47h1a8.28,8.28,0,0,0,0,2h-1a1.24,1.24,0,1,0,0,2.47h1.59A9.27,9.27,0,0,0,25.6,25.87a1.24,1.24,0,0,0-1.75-1.75,6.73,6.73,0,0,1-4.81,2,6.81,6.81,0,0,1-5.84-3.34H19a1.24,1.24,0,1,0,0-2.47H12.32a8.26,8.26,0,0,1-.08-1,8.26,8.26,0,0,1,.08-1H19a1.24,1.24,0,1,0,0-2.47H13.2A6.81,6.81,0,0,1,19,12.52Z"/><path d="M30.27,2.08H4.2A4.21,4.21,0,0,0,0,6.28V32.35a4.21,4.21,0,0,0,4.2,4.2H30.27a4.2,4.2,0,0,0,4.19-4.2V6.28A4.2,4.2,0,0,0,30.27,2.08ZM32,32.35a1.74,1.74,0,0,1-1.73,1.73H4.2a1.73,1.73,0,0,1-1.73-1.73V6.28A1.73,1.73,0,0,1,4.2,4.55H30.27A1.74,1.74,0,0,1,32,6.28Z"/></svg>