<svg id="Layer_1" data-name="Layer 1" xmlns="http://www.w3.org/2000/svg" viewBox="0 0 80 80"><defs><style>.cls-1{fill:#fff;}.cls-2{fill:#8dc63f;}</style></defs><title>icons</title><path class="cls-1" d="M45.5.39H13.78A13.46,13.46,0,0,0,.33,13.84v31.7A13.47,13.47,0,0,0,13.78,59H36.29c0-.59-.08-1.21-.08-1.82s0-1.5.11-2.22H13.78a9.43,9.43,0,0,1-9.4-9.42V13.84a9.41,9.41,0,0,1,9.4-9.41H45.5a9.41,9.41,0,0,1,9.4,9.41v22a21.63,21.63,0,0,1,2.81-.18c.42,0,.82,0,1.24,0V13.84A13.46,13.46,0,0,0,45.5.39Z"/><path class="cls-1" d="M21.41,33.1V26.29a8,8,0,1,0-4.05,0V33.1a8,8,0,1,0,4.05,0Zm-6-14.55a4,4,0,1,1,4,4A4,4,0,0,1,15.42,18.55Zm4,26.26a4,4,0,1,1,4-4A4,4,0,0,1,19.38,44.81Z"/><path class="cls-1" d="M47.9,18.55a2,2,0,0,1-2,2H34.93a2,2,0,0,1,0-4.05H45.87A2,2,0,0,1,47.9,18.55Z"/><path class="cls-1" d="M46.43,38.9a22,22,0,0,0-4.75,4H34.93a2,2,0,0,1,0-4H45.87A1.77,1.77,0,0,1,46.43,38.9Z"/><path class="cls-2" d="M59,35.73c-.42,0-.82,0-1.24,0a21.63,21.63,0,0,0-2.81.18,21.15,21.15,0,0,0-8.47,3,22,22,0,0,0-4.75,4A21.47,21.47,0,0,0,36.32,55c-.07.72-.11,1.47-.11,2.22s0,1.23.08,1.82A21.5,21.5,0,1,0,59,35.73ZM57.71,74.64A17.5,17.5,0,0,1,40.35,59a18,18,0,0,1-.09-1.82A16.23,16.23,0,0,1,40.41,55,17.46,17.46,0,0,1,54.9,40a18.58,18.58,0,0,1,2.81-.23c.42,0,.83,0,1.24.06a17.45,17.45,0,0,1-1.24,34.85Z"/><path class="cls-2" d="M69.57,52.19l-12,12.66a4.67,4.67,0,0,1-3.38,1.47,4.62,4.62,0,0,1-3.37-1.47l-5-5.27a1.67,1.67,0,0,1-.38-.58,2,2,0,0,1,3.32-2.2l1.31,1.38,3.67,3.89c.32.33.56.33.87,0l12-12.67a2,2,0,0,1,2.94,2.79Z"/></svg>