<svg viewBox="0 0 45 45" xmlns="http://www.w3.org/2000/svg"><g fill="#fff"><path d="m19.49 15.37v-1.82a1 1 0 0 1 1-1.07h2.51v-3.87h-3.47c-3.88 0-4.75 2.86-4.75 4.72v2h-2.25v4.51h2.28v11.33h4.51v-11.29h3.34l.15-1.77.27-2.74z" fill-rule="evenodd"/><path d="m31.41 2.08h-27.21a4.21 4.21 0 0 0 -4.2 4.2v27.21a4.2 4.2 0 0 0 4.2 4.2h27.21a4.2 4.2 0 0 0 4.2-4.2v-27.21a4.21 4.21 0 0 0 -4.2-4.2zm1.73 31.41a1.73 1.73 0 0 1 -1.73 1.73h-27.21a1.72 1.72 0 0 1 -1.73-1.73v-27.21a1.73 1.73 0 0 1 1.73-1.73h27.21a1.74 1.74 0 0 1 1.73 1.73z"/></g></svg>