<svg id="Layer_1" data-name="Layer 1" xmlns="http://www.w3.org/2000/svg" viewBox="0 0 45 45"><title>icons</title><line x1="8.53" y1="12.91" x2="25.94" y2="12.91"/><path d="M41.93,28.15a2.13,2.13,0,0,0-2-1.47H34.47V6.28a4.21,4.21,0,0,0-4.21-4.2H4.2A4.21,4.21,0,0,0,0,6.28V32.35a4.2,4.2,0,0,0,4.2,4.19H20.51l-1.8,5.55A2.13,2.13,0,0,0,22,44.47l6.08-4.42,6.07,4.42a2.12,2.12,0,0,0,1.24.41,2.15,2.15,0,0,0,1.26-.41,2.13,2.13,0,0,0,.77-2.38L35.08,35l6.08-4.42A2.14,2.14,0,0,0,41.93,28.15ZM4.2,34.08a1.74,1.74,0,0,1-1.73-1.73V6.28A1.73,1.73,0,0,1,4.2,4.55H30.26A1.73,1.73,0,0,1,32,6.28V25.47l-1.92-5.92a2.13,2.13,0,0,0-4,0l-2.32,7.13h-7.5A2.13,2.13,0,0,0,15,30.53l4.86,3.55Zm30.27-1.73-1,.75a2.1,2.1,0,0,0-.78,2.37l.09.26,2,6.12-5.42-3.94a2.14,2.14,0,0,0-1.25-.4,2.11,2.11,0,0,0-1.25.4l-5.43,3.94,1.73-5.31.34-1.07a2.07,2.07,0,0,0-.78-2.37l-5.41-4H24a2.12,2.12,0,0,0,2-1.47l2.08-6.38,2.07,6.38A2.1,2.1,0,0,0,32,29.14h6.86Z"/><path d="M27.17,12.91a1.23,1.23,0,0,1-1.24,1.23H8.53a1.24,1.24,0,1,1,0-2.47h17.4A1.24,1.24,0,0,1,27.17,12.91Z"/><path d="M18.56,18.48h-10a1.24,1.24,0,1,0,0,2.47h10a1.24,1.24,0,1,0,0-2.47Z"/></svg>