<svg id="Layer_1" data-name="Layer 1" xmlns="http://www.w3.org/2000/svg" viewBox="0 0 80 80"><defs><style>.cls-1{fill:#fff;}.cls-2{fill:#00aeef;}</style></defs><title>icons</title><path class="cls-1" d="M45.72.39H14A13.48,13.48,0,0,0,.56,13.85v31.7A13.49,13.49,0,0,0,14,59h22.5c-.06-.6-.08-1.22-.08-1.82,0-.76,0-1.5.11-2.23H14a9.42,9.42,0,0,1-9.41-9.42V13.85A9.43,9.43,0,0,1,14,4.43h31.7a9.43,9.43,0,0,1,9.42,9.42v22A21.63,21.63,0,0,1,58,35.69c.42,0,.82,0,1.24,0V13.85A13.49,13.49,0,0,0,45.72.39Z"/><path class="cls-2" d="M50.38,57.2a2.68,2.68,0,0,1-.22,1.06h0a2.67,2.67,0,0,1-2.46,1.63h0a2.7,2.7,0,0,1-1.49-5,2.77,2.77,0,0,1,1.49-.44,2.36,2.36,0,0,1,.7.09A2.71,2.71,0,0,1,50.38,57.2Z"/><path class="cls-1" d="M21.65,33.11v-6.8a8,8,0,1,0-4,0v6.8a8,8,0,1,0,4,0Zm-6-14.55a4,4,0,1,1,4,4A4,4,0,0,1,15.66,18.56Zm4,26.26a4,4,0,1,1,4-4A4,4,0,0,1,19.62,44.82Z"/><path class="cls-1" d="M46.11,20.58H35.17a2,2,0,1,1,0-4H46.11a2,2,0,1,1,0,4Z"/><path class="cls-1" d="M46.64,38.91a21.51,21.51,0,0,0-4.74,4H35.17a2,2,0,0,1,0-4.05H46.11A1.84,1.84,0,0,1,46.64,38.91Z"/><path class="cls-2" d="M59.19,35.73c-.42,0-.82,0-1.24,0a21.63,21.63,0,0,0-2.81.18A21.54,21.54,0,0,0,36.55,55c-.07.73-.11,1.47-.11,2.23,0,.6,0,1.22.08,1.82A21.5,21.5,0,1,0,59.19,35.73ZM58,74.64A17.48,17.48,0,0,1,40.58,59a15.62,15.62,0,0,1-.09-1.82A18.16,18.16,0,0,1,40.63,55,17.51,17.51,0,0,1,55.14,40,18.58,18.58,0,0,1,58,39.73c.42,0,.83,0,1.24.06A17.45,17.45,0,0,1,58,74.64Z"/><circle class="cls-2" cx="57.95" cy="57.2" r="2.7"/><circle class="cls-2" cx="68.2" cy="57.2" r="2.7"/></svg>