<svg id="Layer_1" data-name="Layer 1" xmlns="http://www.w3.org/2000/svg" viewBox="0 0 45 45"><title>icons</title><path d="M34.46,20.65V6.29a4.21,4.21,0,0,0-4.2-4.21H4.2A4.21,4.21,0,0,0,0,6.29V32.36a4.21,4.21,0,0,0,4.2,4.2H24.55a13.57,13.57,0,0,0,6.17,6.59,1.18,1.18,0,0,0,.48.1,1.31,1.31,0,0,0,.61-.15c.8-.38,7.74-4,7.74-14.78A8.34,8.34,0,0,0,34.46,20.65ZM22.87,28.32a20.15,20.15,0,0,0,.77,5.77H4.2a1.74,1.74,0,0,1-1.73-1.73V6.29A1.74,1.74,0,0,1,4.2,4.55H30.26A1.74,1.74,0,0,1,32,6.29V20a6.81,6.81,0,0,0-.78-.05A8.35,8.35,0,0,0,22.87,28.32Zm8.33,12.3a11.41,11.41,0,0,1-3.86-4.06,12.84,12.84,0,0,1-1.11-2.47,17.66,17.66,0,0,1-.89-5.77,5.88,5.88,0,0,1,5.87-5.86,5.11,5.11,0,0,1,.78.05,5.79,5.79,0,0,1,2.47.93,5.86,5.86,0,0,1,2.62,4.88C37.08,36.37,32.68,39.72,31.2,40.62Z"/><path d="M34.46,26.21A4.15,4.15,0,0,0,32,24.68a3.84,3.84,0,0,0-.78-.07,4.12,4.12,0,1,0,0,8.24,3.38,3.38,0,0,0,.72-.07,4,4,0,0,0,2.53-1.52,4.13,4.13,0,0,0,.88-2.53A4,4,0,0,0,34.46,26.21Zm-2.47,4a1.54,1.54,0,0,1-.78.21,1.66,1.66,0,0,1,0-3.31,1.45,1.45,0,0,1,.78.21,1.62,1.62,0,0,1,.88,1.44A1.65,1.65,0,0,1,32,30.18Z"/><path d="M9.54,23.06a1.23,1.23,0,0,1-1.23-1.24V18.74a1.24,1.24,0,0,1,2.47,0v3.08A1.23,1.23,0,0,1,9.54,23.06Z"/><path d="M12.63,29.29h0l-3.08,0A1.24,1.24,0,0,1,8.31,28V25a1.24,1.24,0,0,1,2.47,0v1.86h1.86a1.24,1.24,0,0,1,0,2.47Z"/><path d="M20.12,29.33H17a1.23,1.23,0,0,1-1.22-1.25A1.2,1.2,0,0,1,17,26.85l3.08,0a1.23,1.23,0,1,1,0,2.46Z"/><path d="M9.31,7.91a4.3,4.3,0,1,0,4.3,4.29A4.32,4.32,0,0,0,9.31,7.91Zm0,6.13a1.83,1.83,0,1,1,1.84-1.84A1.84,1.84,0,0,1,9.31,14Z"/></svg>