<svg id="Layer_1" data-name="Layer 1" xmlns="http://www.w3.org/2000/svg" viewBox="0 0 45 45"><title>icons</title><path d="M30.27,2.08H4.2A4.21,4.21,0,0,0,0,6.28V32.35a4.21,4.21,0,0,0,4.2,4.2H30.27a4.2,4.2,0,0,0,4.19-4.2V6.28A4.2,4.2,0,0,0,30.27,2.08ZM32,32.35a1.74,1.74,0,0,1-1.73,1.73H4.2a1.73,1.73,0,0,1-1.73-1.73V6.28A1.73,1.73,0,0,1,4.2,4.55H30.27A1.74,1.74,0,0,1,32,6.28Z"/><path d="M8.61,14.57H18a1.24,1.24,0,1,0,0-2.47H8.61a1.24,1.24,0,0,0,0,2.47Z"/><path d="M25.85,18.9H8.61a1.24,1.24,0,0,0,0,2.47H25.85a1.24,1.24,0,1,0,0-2.47Z"/><path d="M25.85,25.42H8.61a1.23,1.23,0,1,0,0,2.46H25.85a1.23,1.23,0,1,0,0-2.46Z"/></svg>