<svg id="Layer_1" data-name="Layer 1" xmlns="http://www.w3.org/2000/svg" viewBox="0 0 45 45"><title>icons</title><path d="M31.57,2.08H4.2A4.21,4.21,0,0,0,0,6.28V24.92a4.21,4.21,0,0,0,4.2,4.2H31.57a4.21,4.21,0,0,0,4.2-4.2V6.28A4.21,4.21,0,0,0,31.57,2.08ZM33.3,24.92a1.73,1.73,0,0,1-1.73,1.73H4.2a1.73,1.73,0,0,1-1.73-1.73V6.28A1.73,1.73,0,0,1,4.2,4.55H31.57A1.73,1.73,0,0,1,33.3,6.28Z"/><path d="M26.56,12.1H9.21a1.24,1.24,0,0,0,0,2.47H26.56a1.24,1.24,0,1,0,0-2.47Z"/><path d="M26.56,18.9H9.21a1.24,1.24,0,0,0,0,2.47H26.56a1.24,1.24,0,1,0,0-2.47Z"/></svg>