<svg id="Layer_1" data-name="Layer 1" xmlns="http://www.w3.org/2000/svg" viewBox="0 0 45 45"><title>icons</title><path d="M30.27,2.08H4.2A4.21,4.21,0,0,0,0,6.28V32.35a4.21,4.21,0,0,0,4.2,4.2H30.27a4.21,4.21,0,0,0,4.2-4.2V6.28A4.21,4.21,0,0,0,30.27,2.08ZM32,32.35a1.74,1.74,0,0,1-1.73,1.73H4.2a1.73,1.73,0,0,1-1.73-1.73V6.28A1.73,1.73,0,0,1,4.2,4.55H30.27A1.74,1.74,0,0,1,32,6.28Z"/><path d="M15.94,12.71a4.79,4.79,0,1,0-6,4.6v4a4.79,4.79,0,1,0,2.47,0v-4A4.76,4.76,0,0,0,15.94,12.71Zm-7.1,0A2.32,2.32,0,1,1,11.16,15,2.32,2.32,0,0,1,8.84,12.71Zm4.63,13.21a2.32,2.32,0,1,1-2.31-2.32A2.31,2.31,0,0,1,13.47,25.92Z"/><path d="M26.86,11.48H20.37a1.23,1.23,0,0,0,0,2.46h6.49a1.23,1.23,0,0,0,0-2.46Z"/><path d="M26.86,24.69H20.37a1.24,1.24,0,0,0,0,2.47h6.49a1.24,1.24,0,0,0,0-2.47Z"/></svg>