<svg id="Layer_1" data-name="Layer 1" xmlns="http://www.w3.org/2000/svg" viewBox="0 0 45 45"><title>icons</title><path d="M28.66,2.09V1.23A1.23,1.23,0,0,0,27.43,0a1.24,1.24,0,0,0-1.24,1.23v.86H8.27V1.23A1.23,1.23,0,0,0,7,0,1.24,1.24,0,0,0,5.8,1.23v.86A5.8,5.8,0,0,0,0,7.89V24.7A1.37,1.37,0,0,0,0,25v0a2.48,2.48,0,0,0,.52,1.25,2.2,2.2,0,0,0,.2.23l9.58,9.57a1.43,1.43,0,0,0,.44.32.53.53,0,0,0,.18,0,.94.94,0,0,0,.3.05H28.66a5.81,5.81,0,0,0,5.81-5.81V7.89A5.81,5.81,0,0,0,28.66,2.09ZM10,32.26,4.25,26.48H8a2,2,0,0,1,2,2Zm22-1.58A3.35,3.35,0,0,1,28.66,34H12.48V28.47A4.46,4.46,0,0,0,8,24H2.47V7.89A3.34,3.34,0,0,1,5.8,4.55v.84A1.24,1.24,0,0,0,7,6.63,1.23,1.23,0,0,0,8.27,5.39V4.55H26.19v.84a1.24,1.24,0,0,0,1.24,1.24,1.23,1.23,0,0,0,1.23-1.24V4.55A3.35,3.35,0,0,1,32,7.89Z"/><path d="M27.17,12.91a1.22,1.22,0,0,1-1.23,1.23H8.54a1.24,1.24,0,1,1,0-2.47h17.4A1.23,1.23,0,0,1,27.17,12.91Z"/><path d="M27.17,20a1.22,1.22,0,0,1-1.23,1.23H8.54a1.24,1.24,0,1,1,0-2.47h17.4A1.23,1.23,0,0,1,27.17,20Z"/></svg>