<svg id="Layer_1" data-name="Layer 1" xmlns="http://www.w3.org/2000/svg" viewBox="0 0 45 45"><title>icons</title><path d="M30.27,2.08H4.2A4.21,4.21,0,0,0,0,6.28V32.35a4.21,4.21,0,0,0,4.2,4.2H30.27a4.2,4.2,0,0,0,4.19-4.2V6.28A4.2,4.2,0,0,0,30.27,2.08ZM32,32.35a1.74,1.74,0,0,1-1.73,1.73H4.2a1.73,1.73,0,0,1-1.73-1.73V6.28A1.73,1.73,0,0,1,4.2,4.55H30.27A1.74,1.74,0,0,1,32,6.28Z"/><path d="M26,11.67h-.23a1.24,1.24,0,0,0,0,2.47H26a1.24,1.24,0,0,0,0-2.47Z"/><path d="M8.5,14.14H21.39a1.24,1.24,0,0,0,0-2.47H8.5a1.24,1.24,0,1,0,0,2.47Z"/><path d="M25.74,18.48H8.5A1.24,1.24,0,1,0,8.5,21H25.74a1.24,1.24,0,1,0,0-2.47Z"/></svg>