<svg id="Layer_1" data-name="Layer 1" xmlns="http://www.w3.org/2000/svg" viewBox="0 0 45 45"><title>icons</title><path d="M30.27,36.55H4.2A4.21,4.21,0,0,1,0,32.35V6.28a4.21,4.21,0,0,1,4.2-4.2H30.27a4.21,4.21,0,0,1,4.2,4.2V32.35A4.21,4.21,0,0,1,30.27,36.55ZM4.2,4.55A1.73,1.73,0,0,0,2.47,6.28V32.35A1.73,1.73,0,0,0,4.2,34.08H30.27A1.74,1.74,0,0,0,32,32.35V6.28a1.74,1.74,0,0,0-1.73-1.73Z"/><path d="M22.2,25.52a1.24,1.24,0,0,1-.87-.36L16,19.83V9a1.24,1.24,0,0,1,2.47,0V18.8l4.6,4.61a1.24,1.24,0,0,1-.87,2.11Z"/></svg>