<svg id="Layer_1" data-name="Layer 1" xmlns="http://www.w3.org/2000/svg" viewBox="0 0 45 45"><title>icons</title><path d="M14.39,19a8.47,8.47,0,1,0-8.46-8.47A8.47,8.47,0,0,0,14.39,19Zm0-14.46a6,6,0,1,1-6,6A6,6,0,0,1,14.39,4.55Z"/><path d="M20.21,19.05h0L19.91,19a1.42,1.42,0,0,0-.2,0,1,1,0,0,0-.24,0,.78.78,0,0,0-.22,0,1.18,1.18,0,0,0-.19.11,1.21,1.21,0,0,0-.22.15l0,0-4.39,4.39L10,19.27s0,0,0,0a1.32,1.32,0,0,0-.25-.16.86.86,0,0,0-.16-.1,2,2,0,0,0-.24,0l-.22,0a.71.71,0,0,0-.2,0,.94.94,0,0,0-.28.06h0C3.24,21.5.12,27,0,34.08a22.29,22.29,0,0,0,.06,2.3v.17H28.71v-.17a22.29,22.29,0,0,0,.06-2.3C28.66,27.07,25.55,21.54,20.21,19.05Zm-17.74,15c.09-5.76,2.39-10.16,6.44-12.41l5.51,5.51,5.47-5.47c4,2.25,6.34,6.63,6.42,12.37Z"/></svg>