<svg id="Layer_1" data-name="Layer 1" xmlns="http://www.w3.org/2000/svg" viewBox="0 0 45 45"><defs><style>.cls-1,.cls-2{fill:#fff;}.cls-1{fill-rule:evenodd;}</style></defs><title>icons</title><path class="cls-1" d="M7.64,20.1v10h4.74V16.49H7.64Zm20.22.56c-.31-2.57-1.48-4.17-4.95-4.17-2,0-3.41.75-4,1.84h-.07V16.49H15.08V30.06h4V23.33c0-1.77.35-3.48,2.52-3.48s2.34,2,2.34,3.61v6.6H28V22.61a16.83,16.83,0,0,0-.11-1.95ZM10,9.72a2.37,2.37,0,1,0,2.37,2.37A2.37,2.37,0,0,0,10,9.72Z"/><path class="cls-2" d="M31.41,2.08H4.2A4.21,4.21,0,0,0,0,6.28V33.49a4.2,4.2,0,0,0,4.2,4.2H31.41a4.2,4.2,0,0,0,4.2-4.2V6.28A4.21,4.21,0,0,0,31.41,2.08Zm1.73,31.41a1.73,1.73,0,0,1-1.73,1.73H4.2a1.72,1.72,0,0,1-1.73-1.73V6.28A1.73,1.73,0,0,1,4.2,4.55H31.41a1.74,1.74,0,0,1,1.73,1.73Z"/></svg>